<?xml version="1.0" encoding="UTF-8"?>
<svg width="400" height="600" viewBox="0 0 400 600" fill="none" xmlns="http://www.w3.org/2000/svg">
  <rect width="400" height="600" fill="#1F1F23"/>
  <path d="M200 250C211.046 250 220 241.046 220 230C220 218.954 211.046 210 200 210C188.954 210 180 218.954 180 230C180 241.046 188.954 250 200 250Z" fill="#3F3F46"/>
  <path d="M166.667 300C166.667 282.909 180.471 269.167 197.5 269.167H202.5C219.529 269.167 233.333 282.909 233.333 300V310C233.333 313.682 230.348 316.667 226.667 316.667H173.333C169.652 316.667 166.667 313.682 166.667 310V300Z" fill="#3F3F46"/>
  <path d="M156.25 360H243.75M156.25 390H243.75" stroke="#3F3F46" stroke-width="10" stroke-linecap="round"/>
  <path d="M200 180V180C144.772 180 100 224.772 100 280V350C100 394.183 135.817 430 180 430H220C264.183 430 300 394.183 300 350V280C300 224.772 255.228 180 200 180V180Z" stroke="#3F3F46" stroke-width="10"/>
  <path d="M190 140L210 140" stroke="#3F3F46" stroke-width="10" stroke-linecap="round"/>
  <path d="M170 160L230 160" stroke="#3F3F46" stroke-width="10" stroke-linecap="round"/>
  <text x="200" y="500" font-family="sans-serif" font-size="24" text-anchor="middle" fill="#71717A">LianoFlix</text>
</svg>
