<?xml version="1.0" encoding="UTF-8"?>
<svg width="32" height="32" viewBox="0 0 32 32" fill="none" xmlns="http://www.w3.org/2000/svg">
  <!-- Background -->
  <rect width="32" height="32" rx="7" fill="url(#bg)"/>
  
  <!-- Container -->
  <rect x="6" y="6" width="20" height="20" rx="3" fill="#0F0F0F" opacity="0.9"/>
  
  <!-- Letter "O" -->
  <circle cx="11.8" cy="16" r="3.4" stroke="url(#letter)" stroke-width="1.4" fill="none" stroke-linecap="round"/>
  <circle cx="11.8" cy="16" r="3.4" stroke="url(#glow)" stroke-width="0.3" fill="none" opacity="0.6"/>
  
  <!-- Letter "M" -->
  <g stroke="url(#letter)" stroke-width="1.4" stroke-linecap="round" stroke-linejoin="round">
    <path d="M16.8 13.2 L16.8 18.8"/>
    <path d="M16.8 13.2 L18.7 15.7"/>
    <path d="M18.7 15.7 L20.6 13.2"/>
    <path d="M20.6 13.2 L20.6 18.8"/>
  </g>
  <g stroke="url(#glow)" stroke-width="0.3" stroke-linecap="round" stroke-linejoin="round" opacity="0.6">
    <path d="M16.8 13.2 L16.8 18.8"/>
    <path d="M16.8 13.2 L18.7 15.7"/>
    <path d="M18.7 15.7 L20.6 13.2"/>
    <path d="M20.6 13.2 L20.6 18.8"/>
  </g>
  
  <!-- Play button -->
  <path d="M22.5 15.2 L22.5 16.8 L24 16 Z" fill="url(#play)"/>
  
  <defs>
    <linearGradient id="bg" x1="0" y1="0" x2="32" y2="32">
      <stop offset="0" stop-color="#8B5CF6"/>
      <stop offset="0.5" stop-color="#7C3AED"/>
      <stop offset="1" stop-color="#3B82F6"/>
    </linearGradient>
    <linearGradient id="letter" x1="9" y1="13" x2="22.5" y2="19">
      <stop offset="0" stop-color="#F9A8D4"/>
      <stop offset="0.5" stop-color="#F472B6"/>
      <stop offset="1" stop-color="#FCD34D"/>
    </linearGradient>
    <linearGradient id="glow" x1="9" y1="13" x2="22.5" y2="19">
      <stop offset="0" stop-color="#FFF"/>
      <stop offset="1" stop-color="#FCD34D"/>
    </linearGradient>
    <linearGradient id="play" x1="22.5" y1="15.2" x2="24" y2="16.8">
      <stop offset="0" stop-color="#F9A8D4"/>
      <stop offset="1" stop-color="#F472B6"/>
    </linearGradient>
  </defs>
</svg>
